<svg width="800" height="600" viewBox="0 0 800 600" fill="none" xmlns="http://www.w3.org/2000/svg">
<path d="M639.283 312.28C615.028 371.143 555.549 366.891 499.991 384.891C454.73 399.555 419.004 442.234 329.415 434.188C239.827 426.141 166.339 345.333 191.195 255.79C216.051 166.248 321.613 114.787 451.123 170.935C580.633 227.083 663.539 253.417 639.283 312.28Z" fill="url(#paint0_linear)"/>
<ellipse cx="501" cy="457" rx="98" ry="7" fill="#414E7C"/>
<rect x="399.567" y="130.459" width="172.112" height="257.364" rx="18.0861" fill="#B2C3FF"/>
<rect x="397.142" y="127.544" width="172.112" height="257.364" rx="18.0861" fill="url(#paint1_linear)"/>
<ellipse cx="483.198" cy="256.656" rx="60.8689" ry="62.4043" fill="white"/>
<path d="M474.802 250.201C474.802 256.965 465.567 260.099 462.628 260.96C466.266 264.116 475.725 270.428 484.457 270.428C493.189 270.428 499.849 264.116 502.088 260.96C499.429 259.382 492.853 255.021 492.853 250.201V240.302H474.802V250.201Z" fill="#FCD8E3"/>
<path d="M439.54 279.681V300.124C439.54 300.124 452.134 318.63 484.877 318.63C517.62 318.63 525.596 300.124 525.596 300.124C526.436 292.377 527.611 287.256 525.596 279.681C523.581 272.107 505.756 260.443 497.5 257C495.541 260.156 489.724 265 482 265C474.276 265 472.319 260.156 470.5 257C470.5 257 439.54 271.418 439.54 279.681Z" fill="#B2C3FF"/>
<path d="M466.146 211.103C465.16 200.68 473.358 191.67 483.828 191.67C494.144 191.67 502.29 200.43 501.541 210.719L499.793 234.738C499.194 242.969 492.342 249.34 484.09 249.34C475.969 249.34 469.18 243.163 468.415 235.079L466.146 211.103Z" fill="#FCD8E3"/>
<path d="M468.085 229.973C466.266 226.387 462.628 210.434 464.307 202.86C466.406 193.391 489.075 186.936 487.815 181.771C492.433 183.923 502.088 194.424 502.088 207.163C502.088 219.479 500.833 223.556 500.264 226.564C500.198 227.529 500.103 228.393 499.989 229.112C499.989 228.235 500.097 227.445 500.264 226.564C500.681 220.407 499.887 210.14 494.952 207.163C487.815 202.86 479.42 201.705 471.863 207.163C465.986 211.409 466.966 226.485 468.085 229.973Z" fill="#F9759C"/>
<rect x="430.725" y="171.442" width="4.19785" height="19.7972" fill="#D84AA8"/>
<rect x="430.725" y="175.746" width="4.30375" height="19.3101" transform="rotate(-90 430.725 175.746)" fill="#D84AA8"/>
<rect width="4.19785" height="19.7972" transform="matrix(-1 0 0 1 536.51 171.442)" fill="#D84AA8"/>
<rect width="4.30375" height="19.3101" transform="matrix(4.37114e-08 -1 -1 -4.37114e-08 536.51 175.746)" fill="#D84AA8"/>
<rect width="4.19785" height="21.5187" transform="matrix(1 0 0 -1 430.725 331.541)" fill="#D84AA8"/>
<rect width="4.67798" height="19.3101" transform="matrix(-4.02145e-08 1 1 4.75124e-08 430.725 326.863)" fill="#D84AA8"/>
<rect x="536.51" y="331.541" width="4.19785" height="21.5187" transform="rotate(-180 536.51 331.541)" fill="#D84AA8"/>
<rect x="536.51" y="326.863" width="4.67798" height="19.3101" transform="rotate(90 536.51 326.863)" fill="#D84AA8"/>
<rect x="452.553" y="343.592" width="61.2887" height="6.02524" rx="3.01262" fill="#D2D9F1"/>
<rect x="434.083" y="356.503" width="98.2298" height="6.02524" rx="3.01262" fill="#D2D9F1"/>
<rect x="408.896" y="136.151" width="28.5454" height="23.2402" rx="3.61722" fill="#ABB8E7"/>
<rect x="424.848" y="143.037" width="13.4331" height="8.60749" rx="0.904306" fill="#DBE1F4"/>
<ellipse cx="568.673" cy="129" rx="28.2865" ry="30" fill="#6386FF"/>
<path fill-rule="evenodd" clip-rule="evenodd" d="M584.279 121.963L565.604 142L555.018 130.642L557.779 127.679L565.604 136.074L581.518 119L584.279 121.963Z" fill="white"/>
<ellipse cx="335.5" cy="515.296" rx="84.5" ry="11.0291" fill="#414E7C"/>
<path d="M305.098 507.932V491.78L306.232 484.553L315.303 485.097L310.838 507.932H305.098Z" fill="#FCD8E3"/>
<path d="M357.041 502.255L354.718 480.075L364.871 479.097L364.373 501.548L357.041 502.255Z" fill="#FCD8E3"/>
<path d="M303.965 515.544C303.965 506.845 305.098 498.146 305.098 498.146C306.799 499.233 310.201 499.233 312.468 498.146C312.468 501.951 313.602 507.388 315.87 508.476L315.87 508.476C318.137 509.563 318.137 509.563 318.137 511.738C318.137 513.913 314.169 515.544 314.169 515.544H303.965Z" fill="#6885EF"/>
<path d="M378.528 509.442C372.292 511.073 362.277 510.892 355.852 510.529L356.219 494.146C360.954 495.233 364.355 493.602 364.355 494.146C364.355 494.689 366.056 504.005 372.859 505.636C378.301 506.941 378.717 508.717 378.528 509.442Z" fill="#6885EF"/>
<path d="M327.208 441.058C327.208 444.973 317.759 477.765 313.035 493.894C309.407 495.199 305.287 494.438 303.965 493.894L310.767 441.058C309.634 428.01 313.035 386.363 313.035 380.709C313.035 375.054 315.303 364.217 315.303 359.505H357.82C359.521 380.709 372 428.846 372 434.5C372 440.154 366.056 489.807 366.056 489.807C366.056 489.807 356.986 490.713 354.718 489.807C354.718 487.088 355.364 455.194 352.718 441.058L333.443 407.35C332.121 416.049 327.208 437.144 327.208 441.058Z" fill="#3C56C6"/>
<path d="M402.771 296.338C400.957 300.253 400.882 305.943 401.071 308.299C402.582 309.749 405.606 312.323 405.606 311.018C405.606 309.387 410.708 308.299 412.409 303.95C413.769 300.47 420.345 291.989 415.81 288.726C414.109 286.008 405.039 291.445 402.771 296.338Z" fill="#FCD8E3"/>
<path d="M295.388 387.118C295.19 382.822 296.671 378.272 295.409 376.212C293.387 375.518 294.254 374.234 290.888 375.564C290.237 375.821 286.411 381.189 286.912 385.834C287.313 389.549 285.855 394.655 291.416 395.752C294.216 395.816 295.636 392.489 295.388 387.118Z" fill="#FCD8E3"/>
<path d="M353.852 340.476C354.759 342.65 370.859 367.116 378.795 379.078L382 377.192L356.119 336.67C354.986 337.032 352.945 338.301 353.852 340.476Z" fill="#4066EA"/>
<path d="M328.341 279.039C328.341 282.518 327.019 290.819 325.507 292.087C327.019 294.262 331.062 298.612 335.144 298.612C340.246 298.612 345.348 293.718 343.081 292.087C341.267 290.782 341.567 281.214 341 279.039C337.977 277.589 328.341 275.559 328.341 279.039Z" fill="#FCD8E3"/>
<path d="M341.869 282.676L336.284 283.836C333.064 284.271 323.789 271.565 322.845 264.215C321.9 256.865 321.965 248.88 338.062 246.706C354.159 244.532 348.151 276.344 347.393 278.939C346.786 281.015 343.457 282.296 341.869 282.676Z" fill="#FCD8E3"/>
<path d="M313.849 259.264C314.625 266.18 324.24 275.606 326.857 278.595C329.856 279.9 334.181 277.773 334.181 277.773C335.293 275.824 335.301 268.087 335.664 265.57C336.306 261.122 339.811 255.237 343.84 252.009C351.691 245.718 342.953 233.932 342.548 230.33C338.969 234.015 336.958 236.429 326.254 237.63C313.86 239.021 312.879 250.62 313.849 259.264Z" fill="#F9759C"/>
<path d="M292.696 337.8L288.5 377.5H295.979C298 369.217 304.662 351.089 305.516 347C306.371 342.911 313.344 330.627 315.303 326.027C315.303 328.412 317.069 338.405 317.069 345.766C317.069 354.966 313.38 363.595 313.38 369.217C313.38 374.84 320.122 379 329.203 379C338.285 379 359.018 373.348 359.018 369.258V348.62V326.027C363.47 333.864 369.198 339.121 376.035 339.121C382.873 339.121 402.246 323.175 406.876 309.545L401 307.5L376.035 322.765C370.337 313.905 360.659 295.674 355.531 293.63C349.12 291.074 344.887 291.585 342.75 291.585C340.614 291.585 341.148 296.186 334.203 296.186C327.259 296.186 327.259 291.585 325.656 291.585C324.374 291.585 317.069 293.63 312.261 296.186C307.453 298.741 292.696 337.8 292.696 337.8Z" fill="#B2C3FF"/>
<path d="M370 385L367.457 387.233C361.776 382.785 347.283 362.382 336 339C328.367 323.183 322.5 306 318.704 293.478C318.893 293.113 319.299 293.048 321 292.5C322.701 291.952 323.617 291.65 323.806 291.833C324.94 297.316 326.771 310.843 340.246 336.792C351 357.5 366.032 379.883 370 385Z" fill="#6885EF"/>
<path d="M369.725 384.515L366.323 385.602L371.426 423.66L387.299 420.398L379.929 402.456L382.764 400.282L369.725 384.515Z" fill="#4066EA"/>
<path d="M369.725 384.515L382.197 376.903L394.668 389.951L393.111 391.303L399.771 403.544L387.299 420.398L379.929 402.456L382.764 400.282L369.725 384.515Z" fill="#6885EF"/>
<path d="M202.637 482.668C164.215 472.088 158.637 459.374 138.154 459.374C147.137 449.668 203.514 430.607 230.191 466.168C256.868 501.728 251.984 513.764 251.984 513.764C251.984 513.764 237.137 492.168 202.637 482.668Z" fill="#FEC6D7"/>
<path d="M190.551 443C122.051 397.5 131.551 317 131.551 317C146.551 377 230.135 376.661 251.419 427.363C272.704 478.066 251.419 514.224 251.419 514.224C251.419 514.224 259.051 488.5 190.551 443Z" fill="#6386FF"/>
<path d="M611.245 359.362C591.505 389.281 593.179 437.986 596.483 458.598C605.447 434.995 616.792 401.886 640.378 379.678C667.372 354.262 682.059 323.979 690.959 296.828C682.376 316.504 635.92 321.964 611.245 359.362Z" fill="#7795FF" fill-opacity="0.7"/>
<path d="M615.475 319.396C595.735 349.315 597.408 398.019 600.713 418.631C609.677 395.029 621.021 361.919 644.607 339.712C671.601 314.295 683.055 278.815 683.914 250.407C674.686 254.125 640.149 281.997 615.475 319.396Z" fill="#7795FF" fill-opacity="0.7"/>
<path d="M598.917 327.392C582.07 375.015 590.183 435.641 596.346 460.001C602.689 425.735 619.406 373.131 636.245 340.986C657.199 300.984 668.739 247.345 674.553 208.633C668.097 237.754 619.975 267.863 598.917 327.392Z" fill="#6386FF"/>
<defs>
<linearGradient id="paint0_linear" x1="438.692" y1="160.949" x2="385.025" y2="445.462" gradientUnits="userSpaceOnUse">
<stop stop-color="#FEC6D7"/>
<stop offset="1" stop-color="#6386FF"/>
</linearGradient>
<linearGradient id="paint1_linear" x1="483.198" y1="127.544" x2="483.198" y2="384.908" gradientUnits="userSpaceOnUse">
<stop stop-color="#D8E1FF"/>
<stop offset="1" stop-color="#F5F4FF"/>
</linearGradient>
</defs>
</svg>
